<svg width="20" height="20" viewBox="0 0 20 20" fill="none" xmlns="http://www.w3.org/2000/svg">
<g clip-path="url(#clip0_579_96)">
<path d="M13.3335 6.66672C13.1772 6.51049 12.9653 6.42273 12.7443 6.42273C12.5233 6.42273 12.3114 6.51049 12.1551 6.66672L10.0001 8.82172L7.84512 6.66672C7.68795 6.51492 7.47745 6.43092 7.25895 6.43282C7.04046 6.43472 6.83145 6.52236 6.67694 6.67687C6.52243 6.83138 6.43479 7.04039 6.43289 7.25888C6.43099 7.47738 6.51499 7.68788 6.66679 7.84505L8.82179 10.0001L6.66679 12.1551C6.51499 12.3122 6.43099 12.5227 6.43289 12.7412C6.43479 12.9597 6.52243 13.1687 6.67694 13.3232C6.83145 13.4777 7.04046 13.5654 7.25895 13.5673C7.47745 13.5692 7.68795 13.4852 7.84512 13.3334L10.0001 11.1784L12.1551 13.3334C12.3123 13.4852 12.5228 13.5692 12.7413 13.5673C12.9598 13.5654 13.1688 13.4777 13.3233 13.3232C13.4778 13.1687 13.5655 12.9597 13.5673 12.7412C13.5692 12.5227 13.4853 12.3122 13.3335 12.1551L11.1785 10.0001L13.3335 7.84505C13.4897 7.68878 13.5774 7.47685 13.5774 7.25588C13.5774 7.03491 13.4897 6.82299 13.3335 6.66672Z" fill="#3C58A4"/>
<path d="M10 0C8.02219 0 6.08879 0.58649 4.4443 1.6853C2.79981 2.78412 1.51809 4.3459 0.761209 6.17317C0.00433286 8.00043 -0.193701 10.0111 0.192152 11.9509C0.578004 13.8907 1.53041 15.6725 2.92894 17.0711C4.32746 18.4696 6.10929 19.422 8.0491 19.8079C9.98891 20.1937 11.9996 19.9957 13.8268 19.2388C15.6541 18.4819 17.2159 17.2002 18.3147 15.5557C19.4135 13.9112 20 11.9778 20 10C19.9971 7.34872 18.9426 4.80684 17.0679 2.9321C15.1932 1.05736 12.6513 0.00286757 10 0ZM10 18.3333C8.35183 18.3333 6.74066 17.8446 5.37025 16.9289C3.99984 16.0132 2.93174 14.7117 2.30101 13.189C1.67028 11.6663 1.50525 9.99076 1.82679 8.37425C2.14834 6.75774 2.94201 5.27288 4.10745 4.10744C5.27289 2.94201 6.75774 2.14833 8.37425 1.82679C9.99076 1.50525 11.6663 1.67027 13.189 2.301C14.7118 2.93173 16.0132 3.99984 16.9289 5.37025C17.8446 6.74066 18.3333 8.35182 18.3333 10C18.3309 12.2094 17.4522 14.3276 15.8899 15.8899C14.3276 17.4522 12.2094 18.3309 10 18.3333Z" fill="#3C58A4"/>
</g>
<defs>
<clipPath id="clip0_579_96">
<rect width="20" height="20" fill="white"/>
</clipPath>
</defs>
</svg>
