<svg width="512" height="470" viewBox="0 0 512 470" fill="none" xmlns="http://www.w3.org/2000/svg">
<path d="M496.448 179.939C477.189 148.402 452.896 120.232 424.533 96.5467L484.267 36.8133C488.153 32.7898 490.303 27.401 490.254 21.8074C490.206 16.2139 487.962 10.8632 484.007 6.90788C480.051 2.9525 474.701 0.708898 469.107 0.660291C463.514 0.611685 458.125 2.76197 454.101 6.64801L389.141 71.6933C348.872 47.7749 302.836 35.3086 256 35.64C123.925 35.64 48.6613 126.051 15.552 179.939C5.32326 196.483 -0.0948486 215.549 -0.0948486 235C-0.0948486 254.451 5.32326 273.517 15.552 290.061C34.8108 321.598 59.1038 349.768 87.4667 373.453L27.7333 433.187C25.6958 435.155 24.0706 437.509 22.9525 440.111C21.8344 442.714 21.2459 445.514 21.2213 448.346C21.1967 451.179 21.7365 453.988 22.8091 456.61C23.8818 459.232 25.4659 461.613 27.4689 463.616C29.4719 465.619 31.8539 467.204 34.4756 468.276C37.0974 469.349 39.9066 469.889 42.7392 469.864C45.5718 469.839 48.3712 469.251 50.974 468.133C53.5767 467.015 55.9307 465.39 57.8987 463.352L123.008 398.243C163.227 422.157 209.209 434.645 256 434.36C388.075 434.36 463.339 343.949 496.448 290.061C506.677 273.517 512.095 254.451 512.095 235C512.095 215.549 506.677 196.483 496.448 179.939ZM51.904 267.725C45.8269 257.892 42.608 246.56 42.608 235C42.608 223.44 45.8269 212.108 51.904 202.275C80.3627 156.067 144.683 78.3067 256 78.3067C291.419 78.1082 326.341 86.6445 357.675 103.16L314.731 146.104C294.249 132.506 269.694 126.413 245.232 128.859C220.769 131.305 197.906 142.139 180.523 159.523C163.139 176.906 152.305 199.769 149.859 224.232C147.413 248.694 153.506 273.249 167.104 293.731L117.824 343.011C91.6929 321.885 69.3939 296.418 51.904 267.725ZM320 235C320 251.974 313.257 268.253 301.255 280.255C289.253 292.257 272.974 299 256 299C246.496 298.963 237.124 296.775 228.587 292.6L313.6 207.587C317.775 216.124 319.963 225.496 320 235ZM192 235C192 218.026 198.743 201.747 210.745 189.745C222.747 177.743 239.026 171 256 171C265.504 171.037 274.876 173.225 283.413 177.4L198.4 262.413C194.225 253.876 192.037 244.504 192 235ZM460.096 267.725C431.637 313.933 367.317 391.693 256 391.693C220.581 391.892 185.659 383.356 154.325 366.84L197.269 323.896C217.751 337.494 242.306 343.587 266.768 341.141C291.231 338.695 314.094 327.861 331.477 310.477C348.861 293.094 359.695 270.231 362.141 245.768C364.587 221.306 358.494 196.751 344.896 176.269L394.176 126.989C420.307 148.115 442.606 173.582 460.096 202.275C466.173 212.108 469.392 223.44 469.392 235C469.392 246.56 466.173 257.892 460.096 267.725Z" fill="#3C58A4"/>
</svg>
