<svg width="5" height="6" viewBox="0 0 5 6" fill="none" xmlns="http://www.w3.org/2000/svg">
<g clip-path="url(#clip0_527_443)">
<path d="M2.5 0.25C2.00555 0.25 1.5222 0.396622 1.11108 0.671326C0.699953 0.94603 0.379521 1.33648 0.190302 1.79329C0.00108322 2.25011 -0.0484251 2.75277 0.0480379 3.23773C0.144501 3.72268 0.382603 4.16814 0.732234 4.51777C1.08187 4.8674 1.52732 5.1055 2.01228 5.20196C2.49723 5.29843 2.99989 5.24892 3.45671 5.0597C3.91352 4.87048 4.30397 4.55005 4.57867 4.13893C4.85338 3.7278 5 3.24445 5 2.75C5 2.08696 4.73661 1.45107 4.26777 0.982233C3.79893 0.513392 3.16304 0.25 2.5 0.25ZM2.5 4.83333C2.08796 4.83333 1.68517 4.71115 1.34256 4.48223C0.999961 4.25331 0.732935 3.92794 0.575252 3.54726C0.41757 3.16658 0.376313 2.74769 0.456698 2.34356C0.537084 1.93943 0.735503 1.56822 1.02686 1.27686C1.31822 0.985502 1.68944 0.787083 2.09356 0.706697C2.49769 0.626311 2.91658 0.667568 3.29726 0.825251C3.67794 0.982934 4.00331 1.24996 4.23223 1.59256C4.46115 1.93516 4.58333 2.33796 4.58333 2.75C4.58333 3.30253 4.36384 3.83244 3.97314 4.22314C3.58244 4.61384 3.05254 4.83333 2.5 4.83333Z" fill="#3C58A4"/>
</g>
<defs>
<clipPath id="clip0_527_443">
<rect width="5" height="5" fill="white" transform="translate(0 0.25)"/>
</clipPath>
</defs>
</svg>
