<svg width="12" height="13" viewBox="0 0 12 13" fill="none" xmlns="http://www.w3.org/2000/svg">
<g clip-path="url(#clip0_527_455)">
<path d="M6 6.75C7.6545 6.75 9 5.4045 9 3.75C9 2.0955 7.6545 0.75 6 0.75C4.3455 0.75 3 2.0955 3 3.75C3 5.4045 4.3455 6.75 6 6.75ZM6 1.75C7.103 1.75 8 2.647 8 3.75C8 4.853 7.103 5.75 6 5.75C4.897 5.75 4 4.853 4 3.75C4 2.647 4.897 1.75 6 1.75ZM10.5 12.25C10.5 12.526 10.2765 12.75 10 12.75C9.7235 12.75 9.5 12.526 9.5 12.25C9.5 10.7405 8.5375 9.455 7.1955 8.965L6.437 10.103L6.9835 12.098C7.075 12.431 6.781 12.7505 6.383 12.7505H5.617C5.219 12.7505 4.9255 12.431 5.0165 12.098L5.563 10.103L4.8045 8.965C3.4625 9.455 2.5 10.7405 2.5 12.2505C2.5 12.5265 2.276 12.7505 2 12.7505C1.724 12.7505 1.5 12.5265 1.5 12.2505C1.5 9.7695 3.519 7.7505 6 7.7505C8.481 7.7505 10.5 9.769 10.5 12.25Z" fill="#3C58A4"/>
</g>
<defs>
<clipPath id="clip0_527_455">
<rect width="12" height="12" fill="white" transform="translate(0 0.75)"/>
</clipPath>
</defs>
</svg>
