<svg width="13" height="13" viewBox="0 0 13 13" fill="none" xmlns="http://www.w3.org/2000/svg">
<g clip-path="url(#clip0_531_540)">
<path d="M10 0.25H2C1.60218 0.25 1.22064 0.408035 0.93934 0.68934C0.658035 0.970644 0.5 1.35218 0.5 1.75L0.5 12.25H12.5V2.75L10 0.25ZM4 1.25H9V3.25H4V1.25ZM11.5 11.25H1.5V1.75C1.5 1.61739 1.55268 1.49021 1.64645 1.39645C1.74021 1.30268 1.86739 1.25 2 1.25H3V4.25H10V1.664L11.5 3.164V11.25Z" fill="black"/>
<path d="M6.5 5.25C6.10444 5.25 5.71776 5.3673 5.38886 5.58706C5.05996 5.80682 4.80362 6.11918 4.65224 6.48463C4.50087 6.85009 4.46126 7.25222 4.53843 7.64018C4.6156 8.02814 4.80608 8.38451 5.08579 8.66421C5.36549 8.94392 5.72186 9.1344 6.10982 9.21157C6.49778 9.28874 6.89992 9.24913 7.26537 9.09776C7.63082 8.94638 7.94318 8.69004 8.16294 8.36114C8.3827 8.03224 8.5 7.64556 8.5 7.25C8.5 6.71957 8.28929 6.21086 7.91421 5.83579C7.53914 5.46071 7.03043 5.25 6.5 5.25ZM6.5 8.25C6.30222 8.25 6.10888 8.19135 5.94443 8.08147C5.77998 7.97159 5.65181 7.81541 5.57612 7.63268C5.50043 7.44996 5.48063 7.24889 5.51922 7.05491C5.5578 6.86093 5.65304 6.68275 5.79289 6.54289C5.93275 6.40304 6.11093 6.3078 6.30491 6.26921C6.49889 6.23063 6.69996 6.25043 6.88268 6.32612C7.06541 6.40181 7.22159 6.52998 7.33147 6.69443C7.44135 6.85888 7.5 7.05222 7.5 7.25C7.5 7.51522 7.39464 7.76957 7.20711 7.95711C7.01957 8.14464 6.76522 8.25 6.5 8.25Z" fill="black"/>
</g>
<defs>
<clipPath id="clip0_531_540">
<rect width="12" height="12" fill="white" transform="translate(0.5 0.25)"/>
</clipPath>
</defs>
</svg>
