<svg width="14" height="15" viewBox="0 0 14 15" fill="none" xmlns="http://www.w3.org/2000/svg">
<g clip-path="url(#clip0_531_711)">
<path d="M7 0.25C5.61553 0.25 4.26216 0.660543 3.11101 1.42971C1.95987 2.19888 1.06266 3.29213 0.532846 4.57122C0.00303298 5.8503 -0.13559 7.25777 0.134506 8.61563C0.404603 9.9735 1.07129 11.2208 2.05026 12.1997C3.02922 13.1787 4.2765 13.8454 5.63437 14.1155C6.99224 14.3856 8.3997 14.247 9.67879 13.7172C10.9579 13.1873 12.0511 12.2901 12.8203 11.139C13.5895 9.98785 14 8.63447 14 7.25C13.998 5.3941 13.2599 3.61479 11.9475 2.30247C10.6352 0.99015 8.8559 0.252007 7 0.25ZM7 13.0833C5.84628 13.0833 4.71846 12.7412 3.75918 12.1002C2.79989 11.4593 2.05222 10.5482 1.61071 9.48232C1.16919 8.41642 1.05368 7.24353 1.27876 6.11197C1.50384 4.98042 2.05941 3.94102 2.87521 3.12521C3.69102 2.3094 4.73042 1.75383 5.86198 1.52875C6.99353 1.30367 8.16642 1.41919 9.23232 1.8607C10.2982 2.30221 11.2093 3.04989 11.8502 4.00917C12.4912 4.96846 12.8333 6.09628 12.8333 7.25C12.8316 8.79657 12.2165 10.2793 11.1229 11.3729C10.0293 12.4665 8.54658 13.0816 7 13.0833ZM9.91667 7.25C9.91667 7.40471 9.85521 7.55308 9.74582 7.66248C9.63642 7.77188 9.48805 7.83333 9.33334 7.83333H7.58334V9.58333C7.58334 9.73804 7.52188 9.88642 7.41248 9.99581C7.30309 10.1052 7.15471 10.1667 7 10.1667C6.84529 10.1667 6.69692 10.1052 6.58752 9.99581C6.47813 9.88642 6.41667 9.73804 6.41667 9.58333V7.83333H4.66667C4.51196 7.83333 4.36359 7.77188 4.25419 7.66248C4.14479 7.55308 4.08334 7.40471 4.08334 7.25C4.08334 7.09529 4.14479 6.94692 4.25419 6.83752C4.36359 6.72813 4.51196 6.66667 4.66667 6.66667H6.41667V4.91667C6.41667 4.76196 6.47813 4.61358 6.58752 4.50419C6.69692 4.39479 6.84529 4.33333 7 4.33333C7.15471 4.33333 7.30309 4.39479 7.41248 4.50419C7.52188 4.61358 7.58334 4.76196 7.58334 4.91667V6.66667H9.33334C9.48805 6.66667 9.63642 6.72813 9.74582 6.83752C9.85521 6.94692 9.91667 7.09529 9.91667 7.25Z" fill="#3C58A4"/>
</g>
<defs>
<clipPath id="clip0_531_711">
<rect width="14" height="14" fill="white" transform="translate(0 0.25)"/>
</clipPath>
</defs>
</svg>
