<svg width="12" height="12" viewBox="0 0 12 12" fill="none" xmlns="http://www.w3.org/2000/svg">
<g clip-path="url(#clip0_531_1495)">
<path d="M11.4749 4.79997C11.3811 4.70623 11.254 4.65358 11.1214 4.65358C10.9888 4.65358 10.8617 4.70623 10.7679 4.79997L5.32189 10.2695C5.08975 10.5016 4.81414 10.6858 4.51082 10.8115C4.2075 10.9372 3.88239 11.0019 3.55407 11.0019C2.89098 11.0019 2.25504 10.7386 1.78614 10.2697C1.31724 9.80088 1.05378 9.16498 1.05374 8.5019C1.05369 7.83882 1.31705 7.20287 1.78589 6.73397L7.06039 1.43797C7.34243 1.16042 7.72273 1.00556 8.11843 1.00712C8.51414 1.00868 8.8932 1.16655 9.17304 1.44632C9.45288 1.7261 9.61083 2.10512 9.61249 2.50082C9.61415 2.89653 9.45938 3.27686 9.18189 3.55897L3.90739 8.85497C3.81226 8.9461 3.68562 8.99697 3.55389 8.99697C3.42216 8.99697 3.29551 8.9461 3.20039 8.85497C3.10665 8.76121 3.054 8.63405 3.054 8.50147C3.054 8.36889 3.10665 8.24173 3.20039 8.14797L7.89639 3.43047C7.98747 3.33617 8.03787 3.20987 8.03673 3.07877C8.03559 2.94767 7.983 2.82227 7.8903 2.72956C7.7976 2.63686 7.67219 2.58427 7.54109 2.58313C7.40999 2.58199 7.28369 2.63239 7.18939 2.72347L2.49339 7.44097C2.35407 7.58026 2.24356 7.74563 2.16816 7.92764C2.09277 8.10964 2.05396 8.30472 2.05396 8.50172C2.05396 8.69872 2.09277 8.8938 2.16816 9.0758C2.24356 9.25781 2.35407 9.42318 2.49339 9.56247C2.7792 9.83521 3.15908 9.98738 3.55414 9.98738C3.9492 9.98738 4.32908 9.83521 4.61489 9.56247L9.88889 4.26597C10.3479 3.79512 10.6029 3.1624 10.5987 2.50486C10.5945 1.84732 10.3314 1.21791 9.86638 0.752982C9.40139 0.288054 8.77194 0.0250431 8.1144 0.0209232C7.45686 0.0168032 6.82417 0.271906 6.35339 0.730971L1.07889 6.02697C0.422479 6.68338 0.0537109 7.57367 0.0537109 8.50197C0.0537109 9.43027 0.422479 10.3206 1.07889 10.977C1.7353 11.6334 2.62558 12.0021 3.55389 12.0021C4.48219 12.0021 5.37248 11.6334 6.02889 10.977L11.4749 5.50897C11.5216 5.46251 11.5587 5.40727 11.584 5.34643C11.6093 5.28559 11.6223 5.22036 11.6223 5.15447C11.6223 5.08858 11.6093 5.02335 11.584 4.96251C11.5587 4.90167 11.5216 4.84643 11.4749 4.79997Z" fill="#3C58A4"/>
</g>
<defs>
<clipPath id="clip0_531_1495">
<rect width="12" height="12" fill="white"/>
</clipPath>
</defs>
</svg>
