<svg width="13" height="13" viewBox="0 0 13 13" fill="none" xmlns="http://www.w3.org/2000/svg">
<g clip-path="url(#clip0_527_449)">
<path d="M10.25 2.75H9.7C9.58395 2.18571 9.27691 1.67867 8.83063 1.31436C8.38434 0.950045 7.8261 0.750727 7.25 0.75L6.25 0.75C5.6739 0.750727 5.11566 0.950045 4.66937 1.31436C4.22309 1.67867 3.91605 2.18571 3.8 2.75H3.25C2.5872 2.75079 1.95178 3.01444 1.48311 3.48311C1.01444 3.95178 0.750794 4.5872 0.75 5.25L0.75 10.25C0.750794 10.9128 1.01444 11.5482 1.48311 12.0169C1.95178 12.4856 2.5872 12.7492 3.25 12.75H10.25C10.9128 12.7492 11.5482 12.4856 12.0169 12.0169C12.4856 11.5482 12.7492 10.9128 12.75 10.25V5.25C12.7492 4.5872 12.4856 3.95178 12.0169 3.48311C11.5482 3.01444 10.9128 2.75079 10.25 2.75ZM6.25 1.75H7.25C7.55913 1.75128 7.86031 1.84804 8.11235 2.02704C8.36438 2.20605 8.55496 2.45855 8.658 2.75H4.842C4.94504 2.45855 5.13562 2.20605 5.38765 2.02704C5.63969 1.84804 5.94087 1.75128 6.25 1.75ZM3.25 3.75H10.25C10.6478 3.75 11.0294 3.90804 11.3107 4.18934C11.592 4.47064 11.75 4.85218 11.75 5.25V6.75H1.75V5.25C1.75 4.85218 1.90804 4.47064 2.18934 4.18934C2.47064 3.90804 2.85218 3.75 3.25 3.75ZM10.25 11.75H3.25C2.85218 11.75 2.47064 11.592 2.18934 11.3107C1.90804 11.0294 1.75 10.6478 1.75 10.25V7.75H6.25V8.25C6.25 8.38261 6.30268 8.50979 6.39645 8.60355C6.49021 8.69732 6.61739 8.75 6.75 8.75C6.88261 8.75 7.00979 8.69732 7.10355 8.60355C7.19732 8.50979 7.25 8.38261 7.25 8.25V7.75H11.75V10.25C11.75 10.6478 11.592 11.0294 11.3107 11.3107C11.0294 11.592 10.6478 11.75 10.25 11.75Z" fill="#3C58A4"/>
</g>
<defs>
<clipPath id="clip0_527_449">
<rect width="12" height="12" fill="white" transform="translate(0.75 0.75)"/>
</clipPath>
</defs>
</svg>
