<svg width="11" height="13" viewBox="0 0 11 13" fill="none" xmlns="http://www.w3.org/2000/svg">
<path d="M5.9791 12.754L5.63056 12.4552C5.15007 12.0529 0.95459 8.42955 0.95459 5.77915C0.95459 3.00419 3.20414 0.754639 5.9791 0.754639C8.75405 0.754639 11.0036 3.00419 11.0036 5.77915C11.0036 8.42958 6.80813 12.0529 6.32963 12.4572L5.9791 12.754ZM5.9791 1.84108C3.8052 1.84354 2.04352 3.60522 2.04106 5.77912C2.04106 7.44417 4.62228 10.104 5.9791 11.3215C7.33594 10.1036 9.91714 7.44215 9.91714 5.77912C9.91468 3.60522 8.15302 1.84357 5.9791 1.84108Z" fill="#3C58A4"/>
<path d="M5.97898 7.77082C4.87901 7.77082 3.9873 6.87912 3.9873 5.77915C3.9873 4.67918 4.87901 3.78748 5.97898 3.78748C7.07895 3.78748 7.97065 4.67918 7.97065 5.77915C7.97065 6.87912 7.07897 7.77082 5.97898 7.77082ZM5.97898 4.78329C5.42899 4.78329 4.98314 5.22914 4.98314 5.77912C4.98314 6.32911 5.42899 6.77496 5.97898 6.77496C6.52896 6.77496 6.97481 6.32911 6.97481 5.77912C6.97481 5.22914 6.52898 4.78329 5.97898 4.78329Z" fill="#3C58A4"/>
</svg>
