<svg width="15" height="13" viewBox="0 0 15 13" fill="none" xmlns="http://www.w3.org/2000/svg">
<g clip-path="url(#clip0_528_478)">
<path d="M11.4 1H3C2.20464 1.00079 1.44213 1.26444 0.879732 1.73311C0.317329 2.20178 0.000952715 2.8372 0 3.5L0 9.5C0.000952715 10.1628 0.317329 10.7982 0.879732 11.2669C1.44213 11.7356 2.20464 11.9992 3 12H11.4C12.1954 11.9992 12.9579 11.7356 13.5203 11.2669C14.0827 10.7982 14.399 10.1628 14.4 9.5V3.5C14.399 2.8372 14.0827 2.20178 13.5203 1.73311C12.9579 1.26444 12.1954 1.00079 11.4 1ZM3 2H11.4C11.7593 2.00059 12.1101 2.09076 12.4074 2.2589C12.7046 2.42705 12.9347 2.66547 13.068 2.9435L8.4732 6.773C8.13506 7.05366 7.67725 7.21124 7.2 7.21124C6.72275 7.21124 6.26494 7.05366 5.9268 6.773L1.332 2.9435C1.46529 2.66547 1.69537 2.42705 1.99263 2.2589C2.28989 2.09076 2.64073 2.00059 3 2ZM11.4 11H3C2.52261 11 2.06477 10.842 1.72721 10.5607C1.38964 10.2794 1.2 9.89783 1.2 9.5V4.25L5.0784 7.48C5.64158 7.94813 6.40455 8.21102 7.2 8.21102C7.99545 8.21102 8.75842 7.94813 9.3216 7.48L13.2 4.25V9.5C13.2 9.89783 13.0104 10.2794 12.6728 10.5607C12.3352 10.842 11.8774 11 11.4 11Z" fill="#3C58A4"/>
</g>
<defs>
<clipPath id="clip0_528_478">
<rect width="14.4" height="12" fill="white" transform="translate(0 0.5)"/>
</clipPath>
</defs>
</svg>
