<svg width="14" height="16" viewBox="0 0 14 16" fill="none" xmlns="http://www.w3.org/2000/svg">
<path d="M8.50625 0.5H2.625C1.59375 0.5 0.75 1.34375 0.75 2.375V15.5H13.25V5.24375L8.50625 0.5ZM8.875 2.63125L11.1187 4.875H8.875V2.63125ZM12 14.25H2V2.375C2 2.03125 2.28125 1.75 2.625 1.75H7.625V6.125H12V14.25ZM3.85625 8.625H2.625V12.4187H3.40625V11.1062H3.85625C4.55 11.1062 5.1125 10.55 5.1125 9.8625C5.1125 9.175 4.55 8.625 3.85625 8.625ZM3.85625 10.325H3.4125V9.40625H3.85625C4.1125 9.40625 4.33125 9.61875 4.33125 9.8625C4.33125 10.1062 4.1125 10.3188 3.85625 10.3188V10.325ZM7 8.66875C6.83125 8.66875 6.675 8.66875 6.53125 8.66875H5.75V12.4187H6.53125C6.675 12.4187 6.83125 12.4187 7 12.4187C7.69375 12.4187 8.25 11.8625 8.25 11.1812V9.9125C8.25 9.23125 7.69375 8.675 7 8.675V8.66875ZM7.46875 9.91875V11.1687C7.46875 11.45 7.24375 11.6375 7 11.6375C6.9125 11.6375 6.73125 11.6375 6.53125 11.6375V9.45C6.73125 9.45 6.9125 9.45 7 9.45C7.24375 9.45 7.46875 9.6375 7.46875 9.91875ZM9.65625 12.4187H8.875V8.625H11.375V9.40625H9.65625V10.325H10.75V11.1062H9.65625V12.4187Z" fill="#3C58A4"/>
</svg>
