<svg width="12" height="12" viewBox="0 0 12 12" fill="none" xmlns="http://www.w3.org/2000/svg">
<path d="M9.5 0H1.5C1.10218 0 0.720644 0.158035 0.43934 0.43934C0.158035 0.720644 0 1.10218 0 1.5L0 12H12V2.5L9.5 0ZM3.5 1H8.5V3H3.5V1ZM11 11H1V1.5C1 1.36739 1.05268 1.24021 1.14645 1.14645C1.24021 1.05268 1.36739 1 1.5 1H2.5V4H9.5V1.414L11 2.914V11Z" fill="#3C58A4"/>
<path d="M6 5C5.60444 5 5.21776 5.1173 4.88886 5.33706C4.55996 5.55682 4.30362 5.86918 4.15224 6.23463C4.00087 6.60009 3.96126 7.00222 4.03843 7.39018C4.1156 7.77814 4.30608 8.13451 4.58579 8.41421C4.86549 8.69392 5.22186 8.8844 5.60982 8.96157C5.99778 9.03874 6.39992 8.99913 6.76537 8.84776C7.13082 8.69638 7.44318 8.44004 7.66294 8.11114C7.8827 7.78224 8 7.39556 8 7C8 6.46957 7.78929 5.96086 7.41421 5.58579C7.03914 5.21071 6.53043 5 6 5ZM6 8C5.80222 8 5.60888 7.94135 5.44443 7.83147C5.27998 7.72159 5.15181 7.56541 5.07612 7.38268C5.00043 7.19996 4.98063 6.99889 5.01922 6.80491C5.0578 6.61093 5.15304 6.43275 5.29289 6.29289C5.43275 6.15304 5.61093 6.0578 5.80491 6.01921C5.99889 5.98063 6.19996 6.00043 6.38268 6.07612C6.56541 6.15181 6.72159 6.27998 6.83147 6.44443C6.94135 6.60888 7 6.80222 7 7C7 7.26522 6.89464 7.51957 6.70711 7.70711C6.51957 7.89464 6.26522 8 6 8Z" fill="#3C58A4"/>
</svg>
