<svg width="16" height="15" viewBox="0 0 16 15" fill="none" xmlns="http://www.w3.org/2000/svg">
<path fill-rule="evenodd" clip-rule="evenodd" d="M12.7607 2.76862C13.4406 2.48233 14.1696 3.05728 14.0495 3.78521L12.6315 12.3832C12.4947 13.2122 11.5842 13.6878 10.8236 13.2747C10.1872 12.929 9.24296 12.397 8.39196 11.8409C7.96702 11.5632 6.66584 10.6728 6.82577 10.039C6.96252 9.4971 9.14996 7.46091 10.4 6.24997C10.891 5.7743 10.6673 5.49951 10.0875 5.93747C8.64896 7.02391 6.33947 8.67572 5.57575 9.14059C4.90192 9.55072 4.55009 9.62072 4.13044 9.55072C3.36411 9.42303 2.65362 9.22528 2.07357 8.98485C1.28959 8.65985 1.32778 7.58247 2.07304 7.26872L12.7607 2.76862Z" fill="#3C58A4"/>
</svg>
