<svg width="18" height="10" viewBox="0 0 18 10" fill="none" xmlns="http://www.w3.org/2000/svg">
<path d="M16.6608 7.79959C16.2907 7.34745 15.8701 6.94222 15.4633 6.55032C15.3186 6.41094 15.1691 6.26684 15.0249 6.12356C14.611 5.71175 14.596 5.55704 14.9237 5.08928C15.1504 4.76686 15.3908 4.44401 15.6232 4.13177C15.8341 3.84849 16.0521 3.55554 16.2611 3.26164L16.304 3.20121C16.7034 2.63878 17.1165 2.05722 17.3364 1.35565C17.3935 1.17056 17.4534 0.898182 17.3163 0.670422C17.1794 0.442853 16.9137 0.373425 16.7257 0.340997C16.6327 0.324949 16.5404 0.322759 16.4547 0.322759L13.839 0.320854L13.8173 0.320664C13.4218 0.320664 13.1553 0.510328 13.0026 0.900563C12.8568 1.27342 12.6966 1.67046 12.5138 2.04798C12.1501 2.79973 11.6881 3.66558 11.0197 4.38772L10.9914 4.41843C10.9125 4.50477 10.8231 4.60253 10.7577 4.60253C10.7477 4.60253 10.7368 4.60057 10.7244 4.59662C10.586 4.54172 10.4931 4.20063 10.4973 4.04196L10.4974 4.03539L10.4955 0.958752C10.4955 0.948086 10.4948 0.937515 10.4934 0.926943C10.4269 0.426805 10.2795 0.115475 9.72256 0.00447587C9.70777 0.0014759 9.69265 0 9.67759 0H6.95769C6.51456 0 6.27039 0.183284 6.04087 0.457615C5.97891 0.530947 5.84995 0.683612 5.91387 0.868801C5.97873 1.05675 6.18925 1.09694 6.2578 1.10999C6.59808 1.17589 6.78989 1.3877 6.84421 1.75779C6.93906 2.40045 6.95072 3.0864 6.8809 3.91653C6.86143 4.14725 6.82292 4.32543 6.75947 4.47767C6.74473 4.5132 6.69246 4.62915 6.63917 4.62919C6.62223 4.62919 6.57323 4.62243 6.484 4.55986C6.27301 4.41277 6.11864 4.20286 5.93867 3.94358C5.32643 3.06307 4.81259 2.09308 4.36759 0.977514C4.20255 0.566852 3.89433 0.336949 3.4993 0.330187C3.06524 0.323473 2.67171 0.320235 2.29638 0.320235C1.88629 0.320235 1.50609 0.324092 1.13484 0.331949C0.817018 0.337663 0.597184 0.434615 0.481511 0.620327C0.365651 0.806183 0.373185 1.05032 0.503925 1.34584C1.5505 3.71358 2.49942 5.43514 3.58081 6.92808C4.33853 7.97273 5.09855 8.69582 5.97236 9.20348C6.89297 9.73943 7.92467 10 9.12632 10C9.26253 10 9.40338 9.99662 9.5454 9.98986C10.2436 9.95524 10.5027 9.69805 10.5354 9.0062C10.551 8.65263 10.589 8.28183 10.7598 7.96559C10.8676 7.76635 10.9681 7.76635 11.0012 7.76635C11.0648 7.76635 11.1437 7.79616 11.2285 7.85202C11.3804 7.95297 11.5108 8.08821 11.6176 8.20635C11.7181 8.31859 11.8176 8.43197 11.9171 8.54539C12.1319 8.7902 12.354 9.04329 12.586 9.28334C13.0938 9.8091 13.6532 10.0403 14.2957 9.99014H16.6939C16.699 9.99014 16.7042 9.98995 16.7093 9.98962C16.9483 9.97357 17.1552 9.83867 17.2771 9.61953C17.4281 9.34805 17.4251 9.00172 17.269 8.69287C17.0919 8.34363 16.8621 8.04526 16.6608 7.79959Z" fill="#3C58A4"/>
</svg>
